# xmcd CD database file
#
# Track frame offsets:
#	150
#	19617
#	39225
#	59895
#	77815
#	108342
#
# Disc length: 4440 seconds
#
# Revision: 0
# Processed by: cddbd v1.5.1PL2 Copyright (c) Steve Scherf et al.
# Submitted via: CDex 1.51
#
DISCID=45115606
DTITLE=MEGARYU - Day by Day
DYEAR=1900
DGENRE=Rap
TTITLE0=Day byDay
TTITLE1=全震全霊
TTITLE2=I miss you
TTITLE3=着火メン
TTITLE4=君をのせて
TTITLE5=CCCD
EXTD=
EXTT0=
EXTT1=
EXTT2=
EXTT3=
EXTT4=
EXTT5=
PLAYORDER=
